<mxfile host="app.diagrams.net" modified="2021-03-18T08:05:03.189Z" agent="5.0 (Windows NT 10.0; Win64; x64) AppleWebKit/537.36 (KHTML, like Gecko) Chrome/89.0.4389.82 Safari/537.36" etag="TgazKSVgrRmA06ifKWlV" version="14.4.5" type="github">
  <diagram id="YLSzRJGPFFzcSf5GAKoJ" name="Page-1">
    <mxGraphModel dx="2942" dy="1122" grid="1" gridSize="10" guides="1" tooltips="1" connect="1" arrows="1" fold="1" page="1" pageScale="1" pageWidth="850" pageHeight="1100" math="0" shadow="0">
      <root>
        <mxCell id="0" />
        <mxCell id="1" parent="0" />
        <mxCell id="YeK8_mfaBbaLDlQbijiX-2" value="" style="dashed=0;outlineConnect=0;html=1;align=center;labelPosition=center;verticalLabelPosition=bottom;verticalAlign=top;shape=mxgraph.weblogos.mongodb" vertex="1" parent="1">
          <mxGeometry x="235" y="276.9" width="50" height="86.2" as="geometry" />
        </mxCell>
        <mxCell id="YeK8_mfaBbaLDlQbijiX-6" value="" style="edgeStyle=orthogonalEdgeStyle;rounded=0;orthogonalLoop=1;jettySize=auto;html=1;" edge="1" parent="1" source="YeK8_mfaBbaLDlQbijiX-3" target="YeK8_mfaBbaLDlQbijiX-2">
          <mxGeometry relative="1" as="geometry" />
        </mxCell>
        <mxCell id="YeK8_mfaBbaLDlQbijiX-3" value="" style="outlineConnect=0;dashed=0;verticalLabelPosition=bottom;verticalAlign=top;align=center;html=1;shape=mxgraph.aws3.mobile_hub;fillColor=#AD688A;gradientColor=#F58435;gradientDirection=west;pointerEvents=1" vertex="1" parent="1">
          <mxGeometry x="80" y="290" width="60" height="60" as="geometry" />
        </mxCell>
        <mxCell id="YeK8_mfaBbaLDlQbijiX-4" value="Amazon Clusters&lt;br&gt;AWS / Sydney&lt;br&gt;Replica Set - 3 Nodes&lt;br&gt;&amp;nbsp;" style="text;html=1;align=center;verticalAlign=middle;resizable=0;points=[];autosize=1;" vertex="1" parent="1">
          <mxGeometry x="45" y="350" width="130" height="60" as="geometry" />
        </mxCell>
        <mxCell id="YeK8_mfaBbaLDlQbijiX-7" value="MongoDB Atlas" style="text;html=1;align=center;verticalAlign=middle;resizable=0;points=[];autosize=1;" vertex="1" parent="1">
          <mxGeometry x="205" y="370" width="100" height="20" as="geometry" />
        </mxCell>
        <mxCell id="YeK8_mfaBbaLDlQbijiX-8" value="" style="aspect=fixed;perimeter=ellipsePerimeter;html=1;align=center;shadow=0;dashed=0;fontColor=#4277BB;labelBackgroundColor=#ffffff;fontSize=12;spacingTop=3;image;image=img/lib/ibm/infrastructure/mobile_backend.svg;" vertex="1" parent="1">
          <mxGeometry x="515" y="286.55" width="66.9" height="66.9" as="geometry" />
        </mxCell>
        <mxCell id="YeK8_mfaBbaLDlQbijiX-9" value="Heroku&lt;br&gt;PaaS" style="text;html=1;align=center;verticalAlign=middle;resizable=0;points=[];autosize=1;" vertex="1" parent="1">
          <mxGeometry x="523.45" y="363.1" width="50" height="30" as="geometry" />
        </mxCell>
        <mxCell id="YeK8_mfaBbaLDlQbijiX-10" value="" style="endArrow=none;html=1;entryX=0;entryY=0.5;entryDx=0;entryDy=0;" edge="1" parent="1" source="YeK8_mfaBbaLDlQbijiX-2" target="YeK8_mfaBbaLDlQbijiX-8">
          <mxGeometry width="50" height="50" relative="1" as="geometry">
            <mxPoint x="425" y="810" as="sourcePoint" />
            <mxPoint x="475" y="760" as="targetPoint" />
          </mxGeometry>
        </mxCell>
        <mxCell id="YeK8_mfaBbaLDlQbijiX-11" value="" style="endArrow=classic;html=1;" edge="1" parent="1">
          <mxGeometry width="50" height="50" relative="1" as="geometry">
            <mxPoint x="385" y="320" as="sourcePoint" />
            <mxPoint x="385" y="420" as="targetPoint" />
          </mxGeometry>
        </mxCell>
        <mxCell id="YeK8_mfaBbaLDlQbijiX-12" value="" style="shape=image;html=1;verticalAlign=top;verticalLabelPosition=bottom;labelBackgroundColor=#ffffff;imageAspect=0;aspect=fixed;image=https://cdn1.iconfinder.com/data/icons/logotypes/32/github-128.png" vertex="1" parent="1">
          <mxGeometry x="710" y="230" width="60" height="60" as="geometry" />
        </mxCell>
        <mxCell id="YeK8_mfaBbaLDlQbijiX-14" value="" style="aspect=fixed;html=1;points=[];align=center;image;fontSize=12;image=img/lib/azure2/monitor/SAP_Azure_Monitor.svg;" vertex="1" parent="1">
          <mxGeometry x="708.75" y="340" width="62.5" height="50" as="geometry" />
        </mxCell>
        <mxCell id="YeK8_mfaBbaLDlQbijiX-15" value="New Relic&lt;br&gt;Observability Platform" style="text;html=1;align=center;verticalAlign=middle;resizable=0;points=[];autosize=1;" vertex="1" parent="1">
          <mxGeometry x="675" y="390" width="130" height="30" as="geometry" />
        </mxCell>
        <mxCell id="YeK8_mfaBbaLDlQbijiX-17" value="" style="endArrow=classic;html=1;exitX=0.004;exitY=0.52;exitDx=0;exitDy=0;exitPerimeter=0;entryX=1;entryY=0.75;entryDx=0;entryDy=0;" edge="1" parent="1" source="YeK8_mfaBbaLDlQbijiX-14" target="YeK8_mfaBbaLDlQbijiX-8">
          <mxGeometry width="50" height="50" relative="1" as="geometry">
            <mxPoint x="425" y="800" as="sourcePoint" />
            <mxPoint x="475" y="750" as="targetPoint" />
          </mxGeometry>
        </mxCell>
        <mxCell id="YeK8_mfaBbaLDlQbijiX-18" value="Github&lt;br&gt;Pipline Repository" style="text;html=1;align=center;verticalAlign=middle;resizable=0;points=[];autosize=1;" vertex="1" parent="1">
          <mxGeometry x="685" y="290" width="110" height="30" as="geometry" />
        </mxCell>
        <mxCell id="YeK8_mfaBbaLDlQbijiX-19" value="" style="endArrow=classic;html=1;exitX=0;exitY=0.5;exitDx=0;exitDy=0;entryX=1;entryY=0.25;entryDx=0;entryDy=0;" edge="1" parent="1" source="YeK8_mfaBbaLDlQbijiX-12" target="YeK8_mfaBbaLDlQbijiX-8">
          <mxGeometry width="50" height="50" relative="1" as="geometry">
            <mxPoint x="425" y="790" as="sourcePoint" />
            <mxPoint x="475" y="740" as="targetPoint" />
          </mxGeometry>
        </mxCell>
      </root>
    </mxGraphModel>
  </diagram>
</mxfile>
